<svg id="Layer_1" data-name="Layer 1" xmlns="http://www.w3.org/2000/svg" width="37.16" height="32" viewBox="0 0 37.16 32"><defs><style>.cls-1{fill:#fff;}</style></defs><title>cart_in_english</title><path class="cls-1" d="M33.34,4.13H6.1L4.76.77A1.27,1.27,0,0,0,3.61,0H-1.34A1.23,1.23,0,0,0-2.58,1.24,1.24,1.24,0,0,0-1.34,2.48H2.77C4.82,7.56,6.84,12.64,8.88,17.73L7,22.23a1.25,1.25,0,0,0,.11,1.17,1.27,1.27,0,0,0,1,.55h2.92a4.13,4.13,0,1,0,2.43,0h10a4.13,4.13,0,1,0,2.44,0H28.8a1.24,1.24,0,1,0,0-2.48H10l1.07-2.55L31,17.33a1.28,1.28,0,0,0,1.11-1L34.55,5.64A1.29,1.29,0,0,0,33.34,4.13Zm-19,23.74a2.07,2.07,0,1,1-2.07-2.06A2,2,0,0,1,14.35,27.87Zm12.39,0a2.07,2.07,0,1,1-2.07-2.06A2,2,0,0,1,26.74,27.87Zm3.12-12.93L11,16.44,7.1,6.61H31.78Z" transform="translate(2.58)"/></svg>