<?xml version="1.0" encoding="UTF-8"?>
<svg width="397px" height="121px" viewBox="0 0 397 121" version="1.1" xmlns="http://www.w3.org/2000/svg" xmlns:xlink="http://www.w3.org/1999/xlink">
    <!-- Generator: sketchtool 49 (51002) - http://www.bohemiancoding.com/sketch -->
    <title>21EAD694-22EE-4A9E-919B-5E7B4B170460</title>
    <desc>Created with sketchtool.</desc>
    <defs>
        <polygon id="path-1" points="0 0.226 71.4467 0.226 71.4467 71.6745 0 71.6745"></polygon>
    </defs>
    <g id="Symbols" stroke="none" stroke-width="1" fill="none" fill-rule="evenodd">
        <g id="Logo-Nfuerza">
            <g>
                <g id="Group-3" transform="translate(0.000000, 0.774000)">
                    <mask id="mask-2" fill="white">
                        <use xlink:href="#path-1"></use>
                    </mask>
                    <g id="Clip-2"></g>
                    <path d="M18.0107,18.2365 C13.1157,23.1285 10.6717,29.0355 10.6717,35.9505 C10.6717,42.8675 13.1157,48.7735 18.0107,53.6655 C22.9057,58.5595 28.8077,61.0035 35.7247,61.0035 C42.6387,61.0035 48.5457,58.5595 53.4377,53.6655 C58.3327,48.7735 60.7777,42.8675 60.7777,35.9505 C60.7777,29.0355 58.3327,23.1285 53.4377,18.2365 C48.5457,13.3425 42.6387,10.8945 35.7247,10.8945 C28.8077,10.8945 22.9057,13.3425 18.0107,18.2365 M10.4727,61.2015 C3.4937,54.2195 -0.0003,45.8025 -0.0003,35.9505 C-0.0003,26.0975 3.4937,17.6825 10.4727,10.6985 C17.4547,3.7195 25.8717,0.2255 35.7247,0.2255 C45.5767,0.2255 53.9937,3.7195 60.9757,10.6985 C67.9577,17.6825 71.4467,26.0975 71.4467,35.9505 C71.4467,45.8025 67.9577,54.2195 60.9757,61.2015 C53.9937,68.1835 45.5767,71.6745 35.7247,71.6745 C25.8717,71.6745 17.4547,68.1835 10.4727,61.2015" id="Fill-1" fill="#693089" mask="url(#mask-2)"></path>
                </g>
                <polygon id="Fill-4" fill="#693089" points="152.144 1.7356 152.144 71.7626 141.523 71.7626 141.523 27.2776 122.046 71.7626 110.058 71.7626 90.924 27.5736 90.924 71.7626 80.308 71.7626 80.308 1.7356 91.412 1.7356 116.079 58.8936 141.036 1.7356"></polygon>
                <polygon id="Fill-6" fill="#693089" points="214.978 1.7356 214.978 71.7626 203.869 71.7626 173.921 21.7006 173.921 71.7626 163.301 71.7626 163.301 1.7356 174.409 1.7356 204.309 51.7966 204.309 1.7356"></polygon>
                <polygon id="Fill-8" fill="#693089" points="226.134 71.762 236.752 71.762 236.752 1.832 226.134 1.832"></polygon>
                <polygon id="Fill-10" fill="#1BCAD3" points="258.9721 1.7356 258.9721 61.1426 284.0761 61.1426 284.0761 71.7626 248.3511 71.7626 248.3511 1.7356"></polygon>
                <polygon id="Fill-11" fill="#1BCAD3" points="292.687 71.762 303.307 71.762 303.307 1.832 292.687 1.832"></polygon>
                <polygon id="Fill-12" fill="#1BCAD3" points="350.6274 1.7356 350.6274 12.3546 325.5264 12.3546 325.5264 31.3416 344.9044 31.3416 344.9044 41.9596 325.5264 41.9596 325.5264 71.7626 314.9034 71.7626 314.9034 1.7356"></polygon>
                <polygon id="Fill-13" fill="#1BCAD3" points="394.8667 1.7356 394.8667 12.3546 369.7627 12.3546 369.7627 31.3416 389.1377 31.3416 389.1377 41.9596 369.7627 41.9596 369.7627 61.1426 394.8667 61.1426 394.8667 71.7626 359.1417 71.7626 359.1417 1.7356"></polygon>
                <path d="M168.6313,105.8835 L152.8633,85.1635 C152.7983,85.0775 152.6963,85.0285 152.5893,85.0285 L145.9653,85.0285 C145.7743,85.0285 145.6203,85.1825 145.6203,85.3725 L145.6203,119.8765 C145.6203,120.0675 145.7743,120.2215 145.9653,120.2215 L152.9173,120.2215 C153.1083,120.2215 153.2623,120.0675 153.2623,119.8765 L153.2623,98.8695 C153.2623,98.5395 153.6813,98.3985 153.8813,98.6605 L170.2023,120.0855 C170.2673,120.1705 170.3683,120.2215 170.4763,120.2215 L176.5483,120.2215 C176.7373,120.2215 176.8923,120.0675 176.8923,119.8765 L176.8923,85.3725 C176.8923,85.1825 176.7373,85.0285 176.5483,85.0285 L169.5953,85.0285 C169.4043,85.0285 169.2503,85.1825 169.2503,85.3725 L169.2503,105.6745 C169.2503,106.0045 168.8313,106.1465 168.6313,105.8835" id="Fill-14" fill="#1BCAD3"></path>
                <path d="M185.6831,120.2214 L192.7361,120.2214 C192.9271,120.2214 193.0811,120.0674 193.0811,119.8764 L193.0811,92.3614 C193.0811,92.1704 193.2351,92.0164 193.4261,92.0164 L211.7901,92.0164 C211.9821,92.0164 212.1361,91.8624 212.1361,91.6714 L212.1361,85.3724 C212.1361,85.1824 211.9821,85.0284 211.7901,85.0284 L185.6831,85.0284 C185.4931,85.0284 185.3381,85.1824 185.3381,85.3724 L185.3381,119.8764 C185.3381,120.0674 185.4931,120.2214 185.6831,120.2214" id="Fill-15" fill="#A2D65C"></path>
                <path d="M240.6928,105.1882 C240.6928,108.0032 240.0218,110.1162 238.6808,111.5222 C237.3398,112.9302 235.4798,113.6342 233.1008,113.6342 C230.7198,113.6342 228.8598,112.9062 227.5198,111.4482 C226.1788,109.9892 225.5088,107.8202 225.5088,104.9372 L225.5088,85.3732 C225.5088,85.1822 225.3548,85.0282 225.1648,85.0282 L218.1108,85.0282 C217.9218,85.0282 217.7668,85.1822 217.7668,85.3732 L217.7668,105.1372 C217.7668,110.3342 219.1238,114.2382 221.8388,116.8522 C224.5538,119.4662 228.2738,120.7742 233.0008,120.7742 C235.3458,120.7742 237.4748,120.4472 239.3848,119.7932 C241.2968,119.1402 242.9218,118.1522 244.2618,116.8282 C245.6018,115.5032 246.6328,113.8532 247.3538,111.8752 C248.0748,109.8972 248.4348,107.5682 248.4348,104.8862 L248.4348,85.3732 C248.4348,85.1822 248.2808,85.0282 248.0898,85.0282 L241.0378,85.0282 C240.8468,85.0282 240.6928,85.1822 240.6928,85.3732 L240.6928,105.1882 Z" id="Fill-16" fill="#A2D65C"></path>
                <path d="M263.9702,92.2605 C263.9702,92.0705 264.1242,91.9155 264.3152,91.9155 L282.4802,91.9155 C282.6702,91.9155 282.8242,91.7615 282.8242,91.5715 L282.8242,85.3725 C282.8242,85.1825 282.6702,85.0285 282.4802,85.0285 L256.6732,85.0285 C256.4832,85.0285 256.3282,85.1825 256.3282,85.3725 L256.3282,119.8765 C256.3282,120.0675 256.4832,120.2215 256.6732,120.2215 L282.7312,120.2215 C282.9212,120.2215 283.0752,120.0675 283.0752,119.8765 L283.0752,113.6785 C283.0752,113.4885 282.9212,113.3335 282.7312,113.3335 L264.3152,113.3335 C264.1242,113.3335 263.9702,113.1795 263.9702,112.9895 L263.9702,92.2605 Z" id="Fill-17" fill="#A2D65C"></path>
                <path d="M317.2885,103.7048 C318.6795,101.9118 319.3755,99.5908 319.3755,96.7418 L319.3755,96.6418 C319.3755,93.2898 318.3695,90.6078 316.3585,88.5978 C313.9785,86.2178 310.5595,85.0278 306.1015,85.0278 L290.3585,85.0278 C290.1685,85.0278 290.0145,85.1828 290.0145,85.3728 L290.0145,119.8768 C290.0145,120.0668 290.1685,120.2218 290.3585,120.2218 L297.4115,120.2218 C297.6015,120.2218 297.7565,120.0668 297.7565,119.8768 L297.7565,102.1208 L297.7565,92.3608 C297.7565,92.1708 297.9105,92.0168 298.1015,92.0168 L305.4485,92.0168 C307.3585,92.0168 308.8505,92.4348 309.9235,93.2728 C310.9955,94.1108 311.5315,95.3678 311.5315,97.0438 L311.5315,97.1438 C311.5315,98.6518 311.0205,99.8588 309.9985,100.7648 C308.9755,101.6688 307.5105,102.1208 305.6005,102.1208 L304.5075,102.1208 C304.3165,102.1208 304.1625,102.2758 304.1625,102.4668 L304.1625,109.3358 C304.1625,109.4038 304.1835,109.4708 304.2215,109.5278 L311.2785,120.0678 C311.3435,120.1638 311.4505,120.2218 311.5655,120.2218 L319.7775,120.2218 C320.0555,120.2218 320.2185,119.9108 320.0615,119.6818 L312.0735,108.0018 C311.9495,107.8208 312.0295,107.5788 312.2315,107.4958 C314.2955,106.6548 315.9805,105.3918 317.2885,103.7048" id="Fill-18" fill="#A2D65C"></path>
                <path d="M326.2553,91.8152 L343.9123,91.8152 C344.2073,91.8152 344.3663,92.1612 344.1743,92.3832 L325.3903,114.2422 C325.3363,114.3042 325.3073,114.3832 325.3073,114.4662 L325.3073,119.8772 C325.3073,120.0672 325.4613,120.2212 325.6513,120.2212 L354.2743,120.2212 C354.4643,120.2212 354.6183,120.0672 354.6183,119.8772 L354.6183,113.7792 C354.6183,113.5882 354.4643,113.4342 354.2743,113.4342 L336.0123,113.4342 C335.7183,113.4342 335.5593,113.0882 335.7513,112.8652 L354.5353,91.0062 C354.5893,90.9442 354.6183,90.8642 354.6183,90.7822 L354.6183,85.3732 C354.6183,85.1822 354.4643,85.0282 354.2743,85.0282 L326.2553,85.0282 C326.0653,85.0282 325.9103,85.1822 325.9103,85.3732 L325.9103,91.4692 C325.9103,91.6602 326.0653,91.8152 326.2553,91.8152" id="Fill-19" fill="#A2D65C"></path>
                <path d="M396.0434,119.741 L381.2534,84.986 C381.1994,84.858 381.0744,84.776 380.9364,84.776 L374.2524,84.776 C374.1144,84.776 373.9894,84.858 373.9354,84.986 L359.1464,119.741 C359.0494,119.969 359.2164,120.221 359.4634,120.221 L366.6044,120.221 C366.7434,120.221 366.8704,120.137 366.9234,120.007 L377.1754,94.856 C377.2924,94.571 377.6954,94.571 377.8134,94.856 L388.0644,120.007 C388.1184,120.137 388.2444,120.221 388.3854,120.221 L395.7264,120.221 C395.9734,120.221 396.1404,119.969 396.0434,119.741" id="Fill-20" fill="#A2D65C"></path>
                <path d="M201.5171,103.1013 C201.5171,105.0323 199.9541,106.5953 198.0231,106.5953 C196.0941,106.5953 194.5291,105.0323 194.5291,103.1013 C194.5291,101.1723 196.0941,99.6073 198.0231,99.6073 C199.9541,99.6073 201.5171,101.1723 201.5171,103.1013" id="Fill-21" fill="#3EBFCA"></path>
                <path d="M272.4829,103.1013 C272.4829,105.0323 270.9189,106.5953 268.9889,106.5953 C267.0589,106.5953 265.4949,105.0323 265.4949,103.1013 C265.4949,101.1723 267.0589,99.6073 268.9889,99.6073 C270.9189,99.6073 272.4829,101.1723 272.4829,103.1013" id="Fill-22" fill="#1BCAD3"></path>
            </g>
        </g>
    </g>
</svg>