<?xml version="1.0" encoding="UTF-8"?>
<svg width="339px" height="90px" viewBox="0 0 339 90" version="1.1" xmlns="http://www.w3.org/2000/svg" xmlns:xlink="http://www.w3.org/1999/xlink">
    <!-- Generator: sketchtool 48.2 (47327) - http://www.bohemiancoding.com/sketch -->
    <title>9274924E-FF67-4741-A87B-E111DE611235</title>
    <desc>Created with sketchtool.</desc>
    <defs></defs>
    <g id="Symbols" stroke="none" stroke-width="1" fill="none" fill-rule="evenodd">
        <g id="omnilogo-color" fill-rule="nonzero">
            <g id="omnilogo-es-1">
                <g id="Group">
                    <path d="M9,52.6 C3,46.6 0,39.4 0,30.9 C0,22.5 3,15.2 9,9.2 C15,3.2 22.2,0.2 30.7,0.2 C39.1,0.2 46.4,3.2 52.4,9.2 C58.4,15.2 61.4,22.4 61.4,30.9 C61.4,39.3 58.4,46.6 52.4,52.6 C46.4,58.6 39.2,61.6 30.7,61.6 C22.2,61.6 15,58.6 9,52.6 Z M15.4,15.8 C11.2,20 9.1,25.1 9.1,31 C9.1,36.9 11.2,42 15.4,46.2 C19.6,50.4 24.7,52.5 30.6,52.5 C36.5,52.5 41.6,50.4 45.8,46.2 C50,42 52.1,36.9 52.1,31 C52.1,25.1 50,20 45.8,15.8 C41.6,11.6 36.5,9.5 30.6,9.5 C24.7,9.5 19.6,11.6 15.4,15.8 Z" id="Shape" fill="#FFFFFF"></path>
                    <polygon id="Shape" fill="#FFFFFF" points="130.4 1 130.4 61 121.3 61 121.3 22.9 104.6 61 94.3 61 78 23.1 78 61 68.9 61 68.9 1 78.4 1 99.5 50 120.9 1"></polygon>
                    <polygon id="Shape" fill="#FFFFFF" points="184.3 1 184.3 61 174.8 61 149.1 18.1 149.1 61 140 61 140 1 149.5 1 175.1 43.9 175.1 1"></polygon>
                    <polygon id="Shape" fill="#FFFFFF" points="203 61 193.9 61 193.9 1 203 1"></polygon>
                    <polygon id="Shape" fill="#FBA343" points="222 1 222 51.9 243.5 51.9 243.5 61 212.9 61 212.9 1"></polygon>
                    <polygon id="Shape" fill="#FBA343" points="260.1 61 251 61 251 1 260.1 1"></polygon>
                    <polygon id="Shape" fill="#FBA343" points="300.6 1 300.6 10.1 279.1 10.1 279.1 26.4 295.7 26.4 295.7 35.5 279.1 35.5 279.1 61 270 61 270 1"></polygon>
                    <polygon id="Shape" fill="#FBA343" points="338.6 1 338.6 10.1 317 10.1 317 26.4 333.6 26.4 333.6 35.5 317 35.5 317 51.9 338.5 51.9 338.5 61 307.9 61 307.9 1"></polygon>
                </g>
                <g id="Group" transform="translate(13.000000, 74.000000)" fill="#FFFFFF">
                    <path d="M6.8,9.2 L11.4,9.2 L11.4,12.8 C10.5,13.5 9,14.2 7.3,14.2 C3.9,14.2 1.6,11.8 1.6,8.2 C1.6,4.9 4,2.3 7,2.3 C9.1,2.3 10.3,3.1 11.3,3.9 L11.5,4.1 L12.5,2.9 L12.3,2.7 C10.7,1.4 9.2,0.8 7.1,0.8 C2.7,0.8 -1.42108547e-14,4.6 -1.42108547e-14,8.3 C-1.42108547e-14,12.6 3,15.7 7.2,15.7 C9.2,15.7 11.3,14.9 12.8,13.6 L12.9,13.5 L12.9,7.8 L6.8,7.8 L6.8,9.2 Z" id="Shape"></path>
                    <polygon id="Shape" points="17.3 8.9 25.2 8.9 25.2 7.4 17.3 7.4 17.3 2.5 26.1 2.5 26.1 1 15.7 1 15.7 15.4 26.2 15.4 26.2 13.9 17.3 13.9"></polygon>
                    <polygon id="Shape" points="39 12.6 29.9 1 28.5 1 28.5 15.4 30 15.4 30 3.6 39.4 15.4 40.6 15.4 40.6 1 39 1"></polygon>
                    <polygon id="Shape" points="42.7 2.5 47.6 2.5 47.6 15.4 49.1 15.4 49.1 2.5 53.9 2.5 53.9 1 42.7 1"></polygon>
                    <polygon id="Shape" points="57.7 8.9 65.6 8.9 65.6 7.4 57.7 7.4 57.7 2.5 66.5 2.5 66.5 1 56.1 1 56.1 15.4 66.6 15.4 66.6 13.9 57.7 13.9"></polygon>
                    <path d="M88.3,8.3 L88.4,8.2 L88.3,8.1 C88.2,4 85.2,0.8 81.1,0.8 C77.5,0.8 73.9,3.6 73.9,8.3 C73.9,12.5 77,15.7 81.1,15.7 C82.8,15.7 84.3,15.2 85.6,14.2 L87.6,16 L88.7,14.8 L86.7,13.1 C87.7,11.8 88.3,10.1 88.3,8.3 Z M85.4,12.1 L82.8,9.7 L81.7,10.9 L84.3,13.2 C83.4,13.9 82.3,14.2 81,14.2 C77.8,14.2 75.4,11.6 75.4,8.2 C75.4,4.8 77.8,2.3 81,2.3 C84.2,2.3 86.6,4.9 86.6,8.3 C86.7,9.7 86.2,11 85.4,12.1 Z" id="Shape"></path>
                    <path d="M100.9,9.4 C100.9,12.5 99.4,14.2 96.6,14.2 C93.8,14.2 92.2,12.4 92.2,9.3 L92.2,1 L90.6,1 L90.6,9.3 C90.6,13.1 92.9,15.5 96.5,15.5 C100.2,15.5 102.4,13.1 102.4,9.2 L102.4,1 L100.8,1 L100.8,9.4 L100.9,9.4 Z" id="Shape"></path>
                    <polygon id="Shape" points="107 8.9 114.9 8.9 114.9 7.4 107 7.4 107 2.5 115.8 2.5 115.8 1 105.4 1 105.4 15.4 115.9 15.4 115.9 13.9 107 13.9"></polygon>
                    <path d="M134.9,12.1 C133.4,13.6 132.1,14.2 130.3,14.2 C127.2,14.2 124.7,11.6 124.7,8.2 C124.7,4.8 127.1,2.3 130.3,2.3 C132,2.3 133.4,2.9 134.8,4.3 L135,4.5 L136.1,3.4 L135.9,3.2 C134.6,2 133,0.9 130.3,0.9 C126.3,0.9 123.1,4.2 123.1,8.4 C123.1,12.6 126.2,15.8 130.2,15.8 C133,15.8 134.6,14.5 135.9,13.3 L136.1,13.1 L134.9,12.1 Z" id="Shape"></path>
                    <path d="M148.1,9.4 C148.1,12.5 146.6,14.2 143.8,14.2 C141,14.2 139.4,12.4 139.4,9.3 L139.4,1 L137.8,1 L137.8,9.3 C137.8,13.1 140.1,15.5 143.7,15.5 C147.3,15.5 149.6,13.1 149.6,9.2 L149.6,1 L148,1 L148,9.4 L148.1,9.4 Z" id="Shape"></path>
                    <rect id="Rectangle-path" x="152.7" y="1" width="1.6" height="14.4"></rect>
                    <path d="M162.4,1 L157.5,1 L157.5,15.4 L162.4,15.4 C166.8,15.4 170,12.4 170,8.2 C170.1,4.1 166.9,1 162.4,1 Z M168.5,8.3 C168.5,11.6 166,14 162.5,14 L159.2,14 L159.2,2.5 L162.5,2.5 C165.9,2.5 168.5,4.9 168.5,8.3 Z" id="Shape"></path>
                    <path d="M179.3,0.9 L178,0.9 L171.3,15.4 L173,15.4 L174.8,11.5 L182.6,11.5 L184.4,15.4 L186.1,15.4 L179.5,1.1 L179.3,0.9 Z M175.4,10.1 L178.6,3 L181.8,10.1 L175.4,10.1 Z" id="Shape"></path>
                    <path d="M200,0.9 L198.7,0.9 L192,15.4 L193.7,15.4 L195.5,11.5 L203.3,11.5 L205,15.2 L205.1,15.4 L206.8,15.4 L200.2,1.1 L200,0.9 Z M196.1,10.1 L199.3,3 L202.5,10.1 L196.1,10.1 Z" id="Shape"></path>
                    <polygon id="Shape" points="215.6 1 214.1 1 214.1 15.4 223.7 15.4 223.7 13.9 215.6 13.9"></polygon>
                    <path d="M232.5,0.9 L231.2,0.9 L224.5,15.4 L226.2,15.4 L228,11.5 L235.8,11.5 L237.5,15.2 L237.6,15.4 L239.3,15.4 L232.7,1.1 L232.5,0.9 Z M228.6,10.1 L231.8,3 L235,10.1 L228.6,10.1 Z" id="Shape"></path>
                    <path d="M252.8,9.2 L257.4,9.2 L257.4,12.8 C256.5,13.5 255,14.2 253.3,14.2 C249.9,14.2 247.6,11.8 247.6,8.2 C247.6,4.9 250,2.3 253,2.3 C255.2,2.3 256.4,3.1 257.3,3.9 L257.5,4.1 L258.5,2.9 L258.3,2.7 C256.7,1.4 255.2,0.8 253.1,0.8 C248.7,0.8 246,4.6 246,8.3 C246,12.6 249,15.7 253.2,15.7 C255.2,15.7 257.3,14.9 258.8,13.6 L258.9,13.5 L258.9,7.8 L252.8,7.8 L252.8,9.2 Z" id="Shape"></path>
                    <polygon id="Shape" points="263.2 8.9 271.1 8.9 271.1 7.4 263.2 7.4 263.2 2.5 272 2.5 272 1 261.7 1 261.7 15.4 272.1 15.4 272.1 13.9 263.2 13.9"></polygon>
                    <polygon id="Shape" points="285 12.6 275.9 1.1 275.9 1 274.5 1 274.5 15.4 276 15.4 276 3.6 285.3 15.3 285.4 15.4 286.5 15.4 286.5 1 285 1"></polygon>
                    <polygon id="Shape" points="288.7 2.5 293.5 2.5 293.5 15.4 295.1 15.4 295.1 2.5 299.9 2.5 299.9 1 288.7 1"></polygon>
                    <polygon id="Shape" points="303.6 13.9 303.6 8.9 311.6 8.9 311.6 7.4 303.6 7.4 303.6 2.5 312.4 2.5 312.4 1 302.1 1 302.1 15.4 312.5 15.4 312.5 13.9"></polygon>
                </g>
            </g>
        </g>
    </g>
</svg>