<?xml version="1.0" encoding="UTF-8"?>
<svg width="31px" height="30px" viewBox="0 0 31 30" version="1.1" xmlns="http://www.w3.org/2000/svg" xmlns:xlink="http://www.w3.org/1999/xlink">
    <!-- Generator: sketchtool 48.2 (47327) - http://www.bohemiancoding.com/sketch -->
    <title>C3C7E18D-2291-4134-AF20-8D7D05CE6F7B</title>
    <desc>Created with sketchtool.</desc>
    <defs></defs>
    <g id="Footer" stroke="none" stroke-width="1" fill="none" fill-rule="evenodd" transform="translate(-1346.000000, -9.000000)">
        <g transform="translate(0.000000, 4.000000)" fill="#9A2E9B" fill-rule="nonzero" id="Redes">
            <g transform="translate(1185.000000, 5.000000)">
                <g id="34067" transform="translate(161.250000, 0.000000)">
                    <path d="M15.0000618,0 C6.71634962,0 0,6.71632194 0,15 C0,23.2835544 6.71634962,30 15.0000618,30 C23.283774,30 30,23.2834926 30,15 C30.0000618,6.71632194 23.283774,0 15.0000618,0 Z M22.9210857,21.8866599 L21.7200594,23.0879286 C21.5056367,23.3020412 20.8777643,23.4356529 20.857608,23.4356529 C17.0580986,23.468793 13.3997444,21.9763732 10.7117949,19.2881874 C8.01648771,16.5913456 6.52233054,12.9199608 6.56245749,9.1076684 C6.56245749,9.1059372 6.69996496,8.49605945 6.9142021,8.28386355 L8.11516663,7.08271848 C8.55464644,6.64120014 9.39885823,6.4416791 9.99025164,6.63953076 L10.2428845,6.7238032 C10.8325467,6.92146938 11.4516395,7.57345243 11.6145586,8.17411771 L12.2186888,10.3914165 C12.381608,10.993813 12.1618681,11.8508198 11.7225119,12.2902978 L10.9205911,13.092339 C11.7079203,16.007065 13.9949094,18.2944775 16.910142,19.0837201 L17.7117537,18.2814935 C18.1532738,17.8399751 19.0099751,17.6204216 19.6110756,17.7830928 L21.8280744,18.3893844 C22.4288659,18.5544669 23.0807279,19.1696619 23.2783331,19.7591362 L23.3626059,20.0154159 C23.5584798,20.6051375 23.3605037,21.4491604 22.9210857,21.8866599 Z" id="Shape"></path>
                </g>
            </g>
        </g>
    </g>
</svg>