<?xml version="1.0" encoding="utf-8"?>
<!-- Generator: Adobe Illustrator 22.0.0, SVG Export Plug-In . SVG Version: 6.00 Build 0)  -->
<svg version="1.1" id="Layer_1" xmlns="http://www.w3.org/2000/svg" xmlns:xlink="http://www.w3.org/1999/xlink" x="0px" y="0px"
	 width="32px" height="32px" viewBox="0 0 32 32" style="enable-background:new 0 0 32 32;" xml:space="preserve">
<style type="text/css">
	.st0{fill:#CBCBCB;}
</style>
<title>profile_in_english</title>
<path class="st0" d="M16,0C7.2,0,0,7.2,0,16s7.2,16,16,16s16-7.2,16-16S24.8,0,16,0z M16,17.3c-2.5,0-4.5-2-4.5-4.5s2-4.5,4.5-4.5
	s4.5,2,4.5,4.5v0C20.5,15.3,18.5,17.3,16,17.3z M16,19.3c4.1,0,7.6,2.8,8.5,6.7c-4.9,4.2-12.1,4.2-17,0C8.4,22.1,11.9,19.3,16,19.3z
	 M20.5,17.4c1.2-1.2,1.9-2.9,1.9-4.6c0-3.6-2.9-6.5-6.5-6.5s-6.5,2.9-6.5,6.5c0,1.7,0.7,3.4,1.9,4.6c-2.8,1.2-5,3.4-6.2,6.2
	C1.1,17.7,2.4,9.5,8.4,5.3s14.2-2.8,18.4,3.1c1.6,2.2,2.4,4.9,2.4,7.6c0,2.8-0.9,5.4-2.5,7.7C25.5,20.9,23.3,18.6,20.5,17.4z"/>
</svg>
