<?xml version="1.0" encoding="UTF-8"?>
<svg width="32px" height="33px" viewBox="0 0 32 33" version="1.1" xmlns="http://www.w3.org/2000/svg" xmlns:xlink="http://www.w3.org/1999/xlink">
    <!-- Generator: sketchtool 48.2 (47327) - http://www.bohemiancoding.com/sketch -->
    <title>23D8B5FF-B274-4FEF-A0DC-92B3A885CD0A</title>
    <desc>Created with sketchtool.</desc>
    <defs></defs>
    <g id="Header-login" stroke="none" stroke-width="1" fill="none" fill-rule="evenodd" transform="translate(-1483.000000, -24.000000)">
        <g id="top" fill="#FFFFFF" fill-rule="nonzero">
            <path d="M1513.94971,54.0398421 L1506.20229,45.8761053 C1508.19429,43.4769474 1509.28571,40.4583158 1509.28571,37.3157895 C1509.28571,29.9735789 1503.38971,24 1496.14286,24 C1488.896,24 1483,29.9735789 1483,37.3157895 C1483,44.658 1488.896,50.6315789 1496.14286,50.6315789 C1498.86343,50.6315789 1501.456,49.8002105 1503.67257,48.222 L1511.47886,56.4476842 C1511.80514,56.791 1512.244,56.9803158 1512.71429,56.9803158 C1513.15943,56.9803158 1513.58171,56.8083684 1513.90229,56.4957368 C1514.58343,55.8316842 1514.60514,54.7305263 1513.94971,54.0398421 Z M1496.14286,27.4736842 C1501.49943,27.4736842 1505.85714,31.8887368 1505.85714,37.3157895 C1505.85714,42.7428421 1501.49943,47.1578947 1496.14286,47.1578947 C1490.78629,47.1578947 1486.42857,42.7428421 1486.42857,37.3157895 C1486.42857,31.8887368 1490.78629,27.4736842 1496.14286,27.4736842 Z" id="Shape"></path>
        </g>
    </g>
</svg>