<?xml version="1.0" encoding="UTF-8"?>
<svg width="32px" height="33px" viewBox="0 0 32 33" version="1.1" xmlns="http://www.w3.org/2000/svg" xmlns:xlink="http://www.w3.org/1999/xlink">
    <!-- Generator: sketchtool 49 (51002) - http://www.bohemiancoding.com/sketch -->
    <title>1EAE013B-F40D-41BD-9946-7E31274013C1</title>
    <desc>Created with sketchtool.</desc>
    <defs></defs>
    <g id="Symbols" stroke="none" stroke-width="1" fill="none" fill-rule="evenodd">
        <g id="Header" transform="translate(-1483.000000, -24.000000)" fill="#CCCCCC" fill-rule="nonzero">
            <g id="top" transform="translate(259.000000, 1.000000)">
                <path d="M1254.94971,53.0398421 L1247.20229,44.8761053 C1249.19429,42.4769474 1250.28571,39.4583158 1250.28571,36.3157895 C1250.28571,28.9735789 1244.38971,23 1237.14286,23 C1229.896,23 1224,28.9735789 1224,36.3157895 C1224,43.658 1229.896,49.6315789 1237.14286,49.6315789 C1239.86343,49.6315789 1242.456,48.8002105 1244.67257,47.222 L1252.47886,55.4476842 C1252.80514,55.791 1253.244,55.9803158 1253.71429,55.9803158 C1254.15943,55.9803158 1254.58171,55.8083684 1254.90229,55.4957368 C1255.58343,54.8316842 1255.60514,53.7305263 1254.94971,53.0398421 Z M1237.14286,26.4736842 C1242.49943,26.4736842 1246.85714,30.8887368 1246.85714,36.3157895 C1246.85714,41.7428421 1242.49943,46.1578947 1237.14286,46.1578947 C1231.78629,46.1578947 1227.42857,41.7428421 1227.42857,36.3157895 C1227.42857,30.8887368 1231.78629,26.4736842 1237.14286,26.4736842 Z" id="Shape"></path>
            </g>
        </g>
    </g>
</svg>