<svg id="Layer_1" data-name="Layer 1" xmlns="http://www.w3.org/2000/svg" width="31.71" height="31.04" viewBox="0 0 31.71 31.04"><defs><style>.cls-1{fill:#cbcbcb;}</style></defs><title>shopping_final</title><path class="cls-1" d="M31.54,4.46a1.34,1.34,0,0,0-1-.53H6l-1-2.6A1.4,1.4,0,0,0,3.65.48H1.51a1.36,1.36,0,0,0,0,2.72H2.73c1.18,2.92,5,16.42,5,16.42L6.18,23.26a1.37,1.37,0,0,0,1.26,1.89H26.71a1.36,1.36,0,0,0,0-2.72H9.48l.63-1.51,18.43-1.31a1.37,1.37,0,0,0,1.21-1.05l2.07-13A1.31,1.31,0,0,0,31.54,4.46ZM28.78,6.65,27.32,17,10.06,18.2,7,6.65Z" transform="translate(-0.15 -0.48)"/><circle class="cls-1" cx="9.86" cy="28.19" r="2.85"/><circle class="cls-1" cx="23.86" cy="28.19" r="2.85"/></svg>