<?xml version="1.0" encoding="UTF-8" standalone="no"?>
<svg width="21px" height="20px" viewBox="0 0 21 20" version="1.1" xmlns="http://www.w3.org/2000/svg" xmlns:xlink="http://www.w3.org/1999/xlink">
    <!-- Generator: sketchtool 49.2 (51160) - http://www.bohemiancoding.com/sketch -->
    <title>01C3AB74-F432-4802-ADB0-CA1230772E07</title>
    <desc>Created with sketchtool.</desc>
    <defs></defs>
    <g id="Zona-de-Empresarios" stroke="none" stroke-width="1" fill="none" fill-rule="evenodd" fill-opacity="0.5">
        <g id="5-empresario-herramientas-fiscales" transform="translate(-829.000000, -222.000000)" fill="#666666">
            <path d="M839.77992,241.679029 C839.566592,241.892357 839.306292,242 839.000979,242 C838.693708,242 838.435365,241.892357 838.22008,241.679029 L829.320971,232.77992 C829.107643,232.566592 829,232.306292 829,232.000979 C829,231.693708 829.107643,231.435365 829.320971,231.22008 L838.22008,222.320971 C838.435365,222.107643 838.693708,222 839.000979,222 C839.306292,222 839.566592,222.107643 839.77992,222.320971 L840.834817,223.330854 C841.048146,223.544182 841.14796,223.804482 841.132303,224.109795 C841.118603,224.417066 841.003131,224.675409 840.789803,224.890694 L835.284372,230.165183 L848.450044,230.165183 C848.755358,230.165183 849.015657,230.272825 849.228985,230.486153 C849.442313,230.701438 849.549956,230.959781 849.549956,231.267052 L849.549956,232.734906 C849.549956,233.040219 849.442313,233.300519 849.228985,233.513847 C849.015657,233.729132 848.755358,233.834817 848.450044,233.834817 L835.284372,233.834817 L840.789803,239.111263 C841.003131,239.324591 841.118603,239.584891 841.132303,239.890205 C841.14796,240.195518 841.048146,240.455818 840.834817,240.669146 L839.77992,241.679029 Z" id="ico-arrow"></path>
        </g>
    </g>
</svg>