<?xml version="1.0" encoding="UTF-8"?>
<svg width="12px" height="15px" viewBox="0 0 12 15" version="1.1" xmlns="http://www.w3.org/2000/svg" xmlns:xlink="http://www.w3.org/1999/xlink">
    <!-- Generator: sketchtool 48.2 (47327) - http://www.bohemiancoding.com/sketch -->
    <title>A0A3E337-74FA-4955-B13C-7FA666A5B748</title>
    <desc>Created with sketchtool.</desc>
    <defs></defs>
    <g id="E2-informacion-tyc" stroke="none" stroke-width="1" fill="none" fill-rule="evenodd" transform="translate(-637.000000, -634.000000)">
        <g id="_mdl-realizando-pago" transform="translate(600.000000, 258.000000)" fill="#666666">
            <g id="Modal" transform="translate(0.000000, 0.901578)">
                <g id="Group-5" transform="translate(37.000000, 375.000000)">
                    <g id="Page-1" transform="translate(0.000000, 0.098422)">
                        <path d="M5.24239962,12.7049302 C5.4517549,12.9016434 5.72582388,13 6.00010714,13 C6.27417612,13 6.54845939,12.9016434 6.75760038,12.7049302 L11.6861278,8.06927132 C12.1046241,7.67564341 12.1046241,7.03753488 11.6861278,6.64410853 C11.2676315,6.25068217 10.5894233,6.25068217 10.170927,6.64410853 L9.41321952,7.35658915 L7.07152615,9.55933333 L7.07152615,7.35658915 L7.07152615,1.00775194 C7.07152615,0.451271318 6.59174472,0 6.00010714,0 C5.40825528,0 4.92868814,0.451271318 4.92868814,1.00775194 L4.92868814,7.35658915 L4.92868814,9.55933333 L2.58678048,7.35658915 L1.82907295,6.64410853 C1.41057669,6.25068217 0.732368461,6.25068217 0.313872198,6.64410853 C-0.104624066,7.03753488 -0.104624066,7.67564341 0.313872198,8.06927132 L5.24239962,12.7049302 Z" id="Fill-1"></path>
                        <path d="M10.9473684,13 L1.05263158,13 C0.471368421,13 0,13.4478 0,14 C0,14.5522 0.471368421,15 1.05263158,15 L10.9473684,15 C11.5286316,15 12,14.5522 12,14 C12,13.4478 11.5286316,13 10.9473684,13" id="Fill-4"></path>
                    </g>
                </g>
            </g>
        </g>
    </g>
</svg>