<?xml version="1.0" encoding="UTF-8"?>
<svg width="31px" height="30px" viewBox="0 0 31 30" version="1.1" xmlns="http://www.w3.org/2000/svg" xmlns:xlink="http://www.w3.org/1999/xlink">
    <!-- Generator: sketchtool 48.2 (47327) - http://www.bohemiancoding.com/sketch -->
    <title>75087DA8-6D9A-4175-9584-154B2297DB6C</title>
    <desc>Created with sketchtool.</desc>
    <defs></defs>
    <g id="Footer" stroke="none" stroke-width="1" fill="none" fill-rule="evenodd" transform="translate(-1292.000000, -11.000000)">
        <g transform="translate(0.000000, 4.000000)" fill="#9A2E9B" fill-rule="nonzero" id="Redes">
            <g transform="translate(1185.000000, 5.000000)">
                <g id="174855" transform="translate(107.500000, 2.000000)">
                    <path d="M20.8107672,0 L8.83020566,0 C3.96120973,0 0,3.96120973 0,8.83020566 L0,20.8107672 C0,25.6797632 3.96120973,29.6409729 8.83020566,29.6409729 L20.8107672,29.6409729 C25.6797632,29.6409729 29.6409729,25.6797632 29.6409729,20.8107672 L29.6409729,8.83020566 C29.6409191,3.96120973 25.6797094,0 20.8107672,0 Z M26.6590921,20.8107672 C26.6590921,24.0406809 24.0406809,26.6590921 20.8107672,26.6590921 L8.83020566,26.6590921 C5.60029205,26.6590921 2.98188078,24.0406809 2.98188078,20.8107672 L2.98188078,8.83020566 C2.98188078,5.60023826 5.60029205,2.98188078 8.83020566,2.98188078 L20.8107672,2.98188078 C24.0406809,2.98188078 26.6590921,5.60023826 26.6590921,8.83020566 L26.6590921,20.8107672 Z" id="Shape"></path>
                    <path d="M14.8204865,7.15427614 C10.5933313,7.15427614 7.15427614,10.5933313 7.15427614,14.8204327 C7.15427614,19.047534 10.5933313,22.486643 14.8204865,22.486643 C19.0476416,22.486643 22.4866968,19.0475878 22.4866968,14.8204327 C22.4866968,10.5932775 19.0476416,7.15427614 14.8204865,7.15427614 Z M14.8204865,19.504816 C12.2333819,19.504816 10.1361569,17.407591 10.1361569,14.8204865 C10.1361569,12.2333819 12.2334357,10.1361569 14.8204865,10.1361569 C17.407591,10.1361569 19.504816,12.2333819 19.504816,14.8204865 C19.504816,17.4075373 17.4075373,19.504816 14.8204865,19.504816 Z" id="Shape"></path>
                    <circle id="Oval" cx="22.5015432" cy="7.21183309" r="1.83698143"></circle>
                </g>
            </g>
        </g>
    </g>
</svg>