<?xml version="1.0" encoding="UTF-8"?>
<svg width="30px" height="30px" viewBox="0 0 30 30" version="1.1" xmlns="http://www.w3.org/2000/svg" xmlns:xlink="http://www.w3.org/1999/xlink">
    <!-- Generator: sketchtool 48.2 (47327) - http://www.bohemiancoding.com/sketch -->
    <title>266269EC-80F0-490E-A837-0A0317CE29F1</title>
    <desc>Created with sketchtool.</desc>
    <defs></defs>
    <g id="Footer" stroke="none" stroke-width="1" fill="none" fill-rule="evenodd" transform="translate(-1400.000000, -10.000000)">
        <g transform="translate(0.000000, 4.000000)" fill="#9A2E9B" fill-rule="nonzero" id="Redes">
            <g transform="translate(1185.000000, 5.000000)">
                <g id="181535" transform="translate(215.000000, 1.000000)">
                    <path d="M14.99975,0 C6.71571193,0 0,6.71586716 0,14.99985 C0,23.2836328 6.71571193,30 14.99975,30 C23.2837881,30 30,23.2836328 30,14.99985 C30,6.71586716 23.2837881,0 14.99975,0 Z M15.00005,5.26865269 L23.8764979,10.803708 L6.12360206,10.803708 L15.00005,5.26865269 Z M23.9870998,19.6424964 L23.9861998,19.6424964 C23.9861998,20.5303053 23.2666878,21.2497125 22.378973,21.2497125 L7.62112702,21.2497125 C6.73331222,21.2497125 6.01390023,20.5302053 6.01390023,19.6424964 L6.01390023,11.1559116 C6.01390023,11.0620106 6.02350039,10.9707097 6.03910065,10.8810088 L14.520042,16.1693617 C14.5304422,16.1758618 14.5415424,16.1802618 14.5522425,16.1862619 C14.5634427,16.1924619 14.5748429,16.198462 14.5862431,16.204162 C14.6461441,16.2350624 14.7078451,16.2599626 14.7709462,16.2762628 C14.7774463,16.2780628 14.7839464,16.2788628 14.7904465,16.2803628 C14.8596477,16.296663 14.9297488,16.3068631 14.99975,16.3068631 L15.00025,16.3068631 C15.00075,16.3068631 15.00125,16.3068631 15.00125,16.3068631 C15.0712512,16.3068631 15.1413524,16.296963 15.2105535,16.2803628 C15.2170536,16.2787628 15.2235537,16.2780628 15.2300538,16.2762628 C15.2930549,16.2599626 15.3545559,16.2350624 15.4147569,16.204162 C15.4261571,16.198462 15.4375573,16.1924619 15.4487575,16.1862619 C15.4593577,16.1802618 15.4705578,16.1758618 15.480958,16.1693617 L23.9618994,10.8810088 C23.9774996,10.9707097 23.9870998,11.0618106 23.9870998,11.1559116 L23.9870998,19.6424964 Z" id="Shape"></path>
                </g>
            </g>
        </g>
    </g>
</svg>