<?xml version="1.0" encoding="UTF-8" standalone="no"?>
<svg width="9px" height="15px" viewBox="0 0 9 15" version="1.1" xmlns="http://www.w3.org/2000/svg" xmlns:xlink="http://www.w3.org/1999/xlink">
    <!-- Generator: sketchtool 49.2 (51160) - http://www.bohemiancoding.com/sketch -->
    <title>1510B88D-0C79-457E-B6CE-B40E37E6A293</title>
    <desc>Created with sketchtool.</desc>
    <defs>
        <polygon id="path-1" points="0 0 8.21314286 0 8.21314286 14.999875 0 14.999875"></polygon>
    </defs>
    <g id="Zona-de-Empresarios" stroke="none" stroke-width="1" fill="none" fill-rule="evenodd">
        <g id="5-empresario-herramientas" transform="translate(-570.000000, -449.000000)">
            <g id="Group-9" transform="translate(550.000000, 436.000000)">
                <g id="Group-7" transform="translate(0.000000, 2.000000)">
                    <g id="ico-signopesos" transform="translate(20.000000, 11.000000)">
                        <mask id="mask-2" fill="white">
                            <use xlink:href="#path-1"></use>
                        </mask>
                        <g id="Clip-2"></g>
                        <path d="M2.63892857,4.951125 C2.63892857,5.302375 2.84978571,5.614875 3.2715,5.888625 C3.5325,6.044875 4.03007143,6.259875 4.76292857,6.533625 C5.49707143,6.806125 6.0345,7.031125 6.37521429,7.207375 C6.93835714,7.499875 7.37035714,7.832375 7.67121429,8.203625 C8.0325,8.672375 8.21378571,9.218625 8.21378571,9.843625 C8.21378571,10.703625 7.92192857,11.449875 7.3395,12.084875 C6.75707143,12.719875 5.98435714,13.114875 5.02007143,13.271125 L5.02007143,14.648625 C5.02007143,14.746125 4.98407143,14.828625 4.91464286,14.897375 C4.84392857,14.966125 4.75778571,14.999875 4.6575,14.999875 L3.45278571,14.999875 C3.3525,14.999875 3.26635714,14.966125 3.19692857,14.897375 C3.12621429,14.828625 3.0915,14.746125 3.0915,14.648625 L3.0915,13.242375 C2.50778571,13.144875 1.96135714,12.973625 1.44835714,12.729875 C0.936642857,12.484875 0.489214286,12.187375 0.107357143,11.836125 C0.0469285714,11.777375 0.0122142857,11.703625 0.00192857143,11.616125 C-0.00835714286,11.528625 0.0173571429,11.444875 0.0777857143,11.367375 L0.981642857,10.166125 C1.04207143,10.087375 1.12692857,10.043625 1.2375,10.033625 C1.34807143,10.024875 1.43421429,10.048625 1.49335714,10.107375 C1.91635714,10.419875 2.33807143,10.673625 2.75978571,10.868625 C3.24192857,11.064875 3.7035,11.162375 4.14578571,11.162375 C4.64721429,11.162375 5.04964286,11.034875 5.3505,10.781125 C5.59221429,10.547375 5.71307143,10.273625 5.71307143,9.961125 C5.71307143,9.648625 5.5215,9.364875 5.13964286,9.111125 C4.87864286,8.954875 4.39135714,8.739875 3.67907143,8.467375 C2.9655,8.193625 2.42807143,7.968625 2.06678571,7.792375 C1.48435714,7.479875 1.03178571,7.118625 0.710357143,6.708625 C0.349071429,6.221125 0.167785714,5.644875 0.167785714,4.979875 C0.167785714,4.218625 0.433928571,3.549875 0.966214286,2.973625 C1.4985,2.397375 2.20692857,2.011125 3.0915,1.816125 L3.0915,0.351125 C3.0915,0.253625 3.12621429,0.171125 3.19692857,0.102375 C3.26635714,0.033625 3.3525,-0.000125 3.45278571,-0.000125 L4.6575,-0.000125 C4.75778571,-0.000125 4.84392857,0.033625 4.91464286,0.102375 C4.98407143,0.171125 5.02007143,0.253625 5.02007143,0.351125 L5.02007143,1.728625 C5.5215,1.787375 6.01907143,1.913625 6.5115,2.109875 C7.00392857,2.304875 7.4205,2.548625 7.76121429,2.842375 C7.82164286,2.899875 7.8615,2.968625 7.88207143,3.047375 C7.90264286,3.124875 7.89235714,3.203625 7.8525,3.281125 L7.12864286,4.541125 C7.08878571,4.638625 7.01292857,4.697375 6.90235714,4.717375 C6.79178571,4.736125 6.69664286,4.717375 6.61692857,4.658625 C5.81335714,4.111125 5.03935714,3.837375 4.29621429,3.837375 C3.7935,3.837375 3.39235714,3.939875 3.0915,4.144875 C2.78935714,4.351125 2.63892857,4.618625 2.63892857,4.951125" id="Fill-1" fill="#747474" mask="url(#mask-2)"></path>
                    </g>
                </g>
            </g>
        </g>
    </g>
</svg>