<?xml version="1.0" encoding="UTF-8"?>
<svg width="32px" height="32px" viewBox="0 0 32 32" version="1.1" xmlns="http://www.w3.org/2000/svg" xmlns:xlink="http://www.w3.org/1999/xlink">
    <!-- Generator: sketchtool 49 (51002) - http://www.bohemiancoding.com/sketch -->
    <title>B6BF9C25-3A52-472B-B6FC-299671AA54AD</title>
    <desc>Created with sketchtool.</desc>
    <defs></defs>
    <g id="Symbols" stroke="none" stroke-width="1" fill="none" fill-rule="evenodd">
        <g id="Header" transform="translate(-1630.000000, -25.000000)" fill="#CCCCCC" fill-rule="nonzero">
            <g id="top" transform="translate(259.000000, 1.000000)">
                <path d="M1403,40 C1403,31.1778909 1395.82211,24 1387,24 C1378.17789,24 1371,31.1778909 1371,40 C1371,44.6597818 1373.00378,48.8599273 1376.19331,51.7864727 L1376.17818,51.7998545 L1376.69716,52.2373818 C1376.73091,52.2658909 1376.76756,52.2891636 1376.80131,52.3170909 C1377.07709,52.5457455 1377.36276,52.7627636 1377.65367,52.9728 C1377.74793,53.0408727 1377.84218,53.1089455 1377.93818,53.1752727 C1378.24887,53.3893818 1378.56771,53.5924364 1378.89353,53.7850182 C1378.96451,53.8269091 1379.03607,53.8676364 1379.10764,53.9083636 C1379.46429,54.1114182 1379.82851,54.3028364 1380.20145,54.4785455 C1380.2288,54.4913455 1380.25673,54.5029818 1380.28407,54.5157818 C1381.49949,55.0807273 1382.79695,55.4955636 1384.15375,55.7405091 C1384.18924,55.7469091 1384.22473,55.7533091 1384.2608,55.7597091 C1384.68204,55.8324364 1385.10793,55.8906182 1385.53905,55.9296 C1385.59142,55.9342545 1385.64378,55.9371636 1385.69673,55.9418182 C1386.12611,55.9773091 1386.56015,56 1387,56 C1387.43578,56 1387.86575,55.9773091 1388.2928,55.9429818 C1388.34691,55.9383273 1388.40102,55.9354182 1388.45513,55.9307636 C1388.88276,55.8917818 1389.30516,55.8353455 1389.72233,55.7637818 C1389.7584,55.7573818 1389.79505,55.7509818 1389.83113,55.744 C1391.16756,55.5042909 1392.4464,55.0987636 1393.64611,54.5483636 C1393.69033,54.528 1393.73513,54.5088 1393.77935,54.4878545 C1394.13833,54.3191273 1394.48916,54.1370182 1394.83302,53.9432727 C1394.91855,53.8949818 1395.00349,53.8461091 1395.08844,53.7960727 C1395.40145,53.6116364 1395.70924,53.4190545 1396.00829,53.2142545 C1396.11593,53.1409455 1396.22124,53.0635636 1396.32771,52.9867636 C1396.58313,52.8029091 1396.83389,52.6132364 1397.07767,52.4148364 C1397.13178,52.3712 1397.18996,52.3333818 1397.24291,52.2885818 L1397.77527,51.8440727 L1397.75956,51.8306909 C1400.97702,48.9029818 1403,44.6836364 1403,40 Z M1372.16364,40 C1372.16364,31.8190545 1378.81905,25.1636364 1387,25.1636364 C1395.18095,25.1636364 1401.83636,31.8190545 1401.83636,40 C1401.83636,44.4084364 1399.90182,48.3717818 1396.83913,51.0912 C1396.66807,50.9730909 1396.49585,50.8672 1396.31956,50.7787636 L1391.39331,48.3159273 C1390.95113,48.0948364 1390.67651,47.6503273 1390.67651,47.1563636 L1390.67651,45.4359273 C1390.79055,45.2951273 1390.91098,45.1357091 1391.03549,44.9605818 C1391.67316,44.0599273 1392.18458,43.0580364 1392.55753,41.9799273 C1393.29469,41.6296727 1393.77062,40.8954182 1393.77062,40.0663273 L1393.77062,38.0037818 C1393.77062,37.4993455 1393.5856,37.0100364 1393.25455,36.6254545 L1393.25455,33.9101091 C1393.2848,33.6075636 1393.39185,31.904 1392.15898,30.4983273 C1391.08669,29.2741818 1389.35113,28.6545455 1387,28.6545455 C1384.64887,28.6545455 1382.91331,29.2741818 1381.84102,30.4977455 C1380.60815,31.9034182 1380.7152,33.6081455 1380.74545,33.9095273 L1380.74545,36.6248727 C1380.41498,37.0094545 1380.22938,37.4987636 1380.22938,38.0032 L1380.22938,40.0657455 C1380.22938,40.7063273 1380.5168,41.3038545 1381.00902,41.7070545 C1381.48029,43.5531636 1382.45018,44.9506909 1382.80858,45.4242909 L1382.80858,47.1080727 C1382.80858,47.5828364 1382.54967,48.0192 1382.13251,48.2472727 L1377.53207,50.7566545 C1377.38545,50.8363636 1377.24,50.9294545 1377.09455,51.0336 C1374.06967,48.3153455 1372.16364,44.3764364 1372.16364,40 Z" id="Shape"></path>
            </g>
        </g>
    </g>
</svg>