<?xml version="1.0" encoding="UTF-8"?>
<svg width="32px" height="32px" viewBox="0 0 32 32" version="1.1" xmlns="http://www.w3.org/2000/svg" xmlns:xlink="http://www.w3.org/1999/xlink">
    <!-- Generator: sketchtool 48.2 (47327) - http://www.bohemiancoding.com/sketch -->
    <title>4B8358E6-C148-40E7-9A7C-EDA98B972BBC</title>
    <desc>Created with sketchtool.</desc>
    <defs></defs>
    <g id="Header-login" stroke="none" stroke-width="1" fill="none" fill-rule="evenodd" transform="translate(-1557.000000, -26.000000)">
        <g id="top" fill="#FFFFFF" fill-rule="nonzero">
            <path d="M1566,52 C1564.35,52 1563,53.35 1563,55 C1563,56.65 1564.35,58 1566,58 C1567.65,58 1569,56.65 1569,55 C1569,53.35 1567.65,52 1566,52 Z M1557,26 L1557,29.2 L1560.2,29.2 L1565.96,41.36 L1563.72,45.2 C1563.56,45.68 1563.4,46.32 1563.4,46.8 C1563.4,48.56 1564.84,50 1566.6,50 L1585.8,50 L1585.8,46.8 L1567.24,46.8 C1567.08,46.8 1566.92,46.64 1566.92,46.48 L1566.92,46.3199373 L1568.36,43.5999373 L1580.2,43.5999373 C1581.48,43.5999373 1582.44,42.9599373 1582.92,41.9999373 L1588.68,31.6 C1589,31.28 1589,31.12 1589,30.8 C1589,29.84 1588.36,29.2 1587.4,29.2 L1563.72,29.2 L1562.28,26 L1557,26 Z M1582,52 C1580.35,52 1579,53.35 1579,55 C1579,56.65 1580.35,58 1582,58 C1583.65,58 1585,56.65 1585,55 C1585,53.35 1583.65,52 1582,52 Z" id="Shape"></path>
        </g>
    </g>
</svg>