<?xml version="1.0" encoding="UTF-8"?>
<svg width="32px" height="32px" viewBox="0 0 32 32" version="1.1" xmlns="http://www.w3.org/2000/svg" xmlns:xlink="http://www.w3.org/1999/xlink">
    <!-- Generator: sketchtool 49 (51002) - http://www.bohemiancoding.com/sketch -->
    <title>ED9DCA3F-2727-43C7-92C1-D0AB54C09443</title>
    <desc>Created with sketchtool.</desc>
    <defs></defs>
    <g id="Symbols" stroke="none" stroke-width="1" fill="none" fill-rule="evenodd">
        <g id="Header" transform="translate(-1557.000000, -26.000000)" fill="#CCCCCC" fill-rule="nonzero">
            <g id="top" transform="translate(259.000000, 1.000000)">
                <path d="M1307,51 C1305.35,51 1304,52.35 1304,54 C1304,55.65 1305.35,57 1307,57 C1308.65,57 1310,55.65 1310,54 C1310,52.35 1308.65,51 1307,51 Z M1298,25 L1298,28.2 L1301.2,28.2 L1306.96,40.36 L1304.72,44.2 C1304.56,44.68 1304.4,45.32 1304.4,45.8 C1304.4,47.56 1305.84,49 1307.6,49 L1326.8,49 L1326.8,45.8 L1308.24,45.8 C1308.08,45.8 1307.92,45.64 1307.92,45.48 L1307.92,45.3199373 L1309.36,42.5999373 L1321.2,42.5999373 C1322.48,42.5999373 1323.44,41.9599373 1323.92,40.9999373 L1329.68,30.6 C1330,30.28 1330,30.12 1330,29.8 C1330,28.84 1329.36,28.2 1328.4,28.2 L1304.72,28.2 L1303.28,25 L1298,25 Z M1323,51 C1321.35,51 1320,52.35 1320,54 C1320,55.65 1321.35,57 1323,57 C1324.65,57 1326,55.65 1326,54 C1326,52.35 1324.65,51 1323,51 Z" id="Shape"></path>
            </g>
        </g>
    </g>
</svg>