<?xml version="1.0" encoding="utf-8"?>
<!-- Generator: Adobe Illustrator 22.0.0, SVG Export Plug-In . SVG Version: 6.00 Build 0)  -->
<svg version="1.1" id="Layer_1" xmlns="http://www.w3.org/2000/svg" xmlns:xlink="http://www.w3.org/1999/xlink" x="0px" y="0px"
	 width="37.2px" height="32px" viewBox="0 0 37.2 32" style="enable-background:new 0 0 37.2 32;" xml:space="preserve">
<style type="text/css">
	.st0{fill:#CBCBCB;}
</style>
<title>cart_in_english</title>
<path class="st0" d="M35.9,4.1H8.7L7.3,0.8C7.1,0.3,6.7,0,6.2,0H1.2C0.6,0,0,0.5,0,1.2c0,0,0,0,0,0c0,0.7,0.6,1.2,1.2,1.2h4.1
	c2.1,5.1,4.1,10.2,6.1,15.2l-1.9,4.5c-0.2,0.4-0.1,0.8,0.1,1.2c0.2,0.3,0.6,0.5,1,0.5h2.9c-2.2,0.7-3.4,3-2.7,5.2
	c0.7,2.2,3,3.4,5.2,2.7c2.2-0.7,3.4-3,2.7-5.2c-0.4-1.3-1.4-2.3-2.7-2.7h10c-2.2,0.7-3.4,3-2.7,5.2c0.7,2.2,3,3.4,5.2,2.7
	s3.4-3,2.7-5.2c-0.4-1.3-1.4-2.3-2.7-2.7h2.9c0.7,0,1.2-0.6,1.2-1.2c0-0.7-0.6-1.2-1.2-1.2c0,0,0,0,0,0H12.6l1.1-2.5l19.9-1.6
	c0.5-0.1,1-0.5,1.1-1l2.4-10.7c0.1-0.7-0.3-1.4-1-1.5C36,4.1,36,4.1,35.9,4.1z M16.9,27.9c0,1.1-0.9,2.1-2.1,2.1
	c-1.1,0-2.1-0.9-2.1-2.1c0-1.1,0.9-2.1,2.1-2.1c0,0,0,0,0,0c1.1,0,2,0.8,2.1,1.9C16.9,27.8,16.9,27.8,16.9,27.9L16.9,27.9z
	 M29.3,27.9c0,1.1-0.9,2.1-2.1,2.1c-1.1,0-2.1-0.9-2.1-2.1c0-1.1,0.9-2.1,2.1-2.1c0,0,0,0,0,0c1.1,0,2,0.8,2.1,1.9
	C29.3,27.8,29.3,27.8,29.3,27.9L29.3,27.9z M32.4,14.9l-18.9,1.5L9.7,6.6h24.7L32.4,14.9z"/>
</svg>
