<svg id="Layer_1" data-name="Layer 1" xmlns="http://www.w3.org/2000/svg" width="20.82" height="22.61" viewBox="0 0 20.82 22.61"><defs><style>.cls-1,.cls-2{fill:none;stroke:#fff;stroke-width:0.5px;}.cls-1{stroke-miterlimit:10;}.cls-2{stroke-linecap:round;stroke-linejoin:round;}</style></defs><title>audio_line</title><path class="cls-1" d="M5.65,19.18h5.88a1.9,1.9,0,0,1,1.35.56l5.86,5.86a.85.85,0,0,0,1.44-.6V4.89a.75.75,0,0,0-1.29-.53l-6,6a1.9,1.9,0,0,1-1.35.56h-6a1,1,0,0,0-1,1v6.14A1.12,1.12,0,0,0,5.65,19.18Z" transform="translate(-4.28 -3.69)"/><line class="cls-2" x1="2.8" y1="0.25" x2="20.57" y2="22.36"/></svg>