<?xml version="1.0" encoding="UTF-8"?>
<svg width="127px" height="34px" viewBox="0 0 127 34" version="1.1" xmlns="http://www.w3.org/2000/svg" xmlns:xlink="http://www.w3.org/1999/xlink">
    <!-- Generator: sketchtool 48.2 (47327) - http://www.bohemiancoding.com/sketch -->
    <title>5D3F04E7-5BDB-4D4B-8CB7-958AFBC68835</title>
    <desc>Created with sketchtool.</desc>
    <defs></defs>
    <g id="Symbols" stroke="none" stroke-width="1" fill="none" fill-rule="evenodd">
        <g id="omnilogo-color-morado" fill-rule="nonzero">
            <g id="omnilogo-es-1">
                <g id="Group">
                    <path d="M3.37168142,19.8711111 C1.12389381,17.6044444 0,14.8844444 0,11.6733333 C0,8.5 1.12389381,5.74222222 3.37168142,3.47555556 C5.61946903,1.20888889 8.31681416,0.0755555556 11.5011799,0.0755555556 C14.6480826,0.0755555556 17.3828909,1.20888889 19.6306785,3.47555556 C21.8784661,5.74222222 23.0023599,8.46222222 23.0023599,11.6733333 C23.0023599,14.8466667 21.8784661,17.6044444 19.6306785,19.8711111 C17.3828909,22.1377778 14.6855457,23.2711111 11.5011799,23.2711111 C8.31681416,23.2711111 5.61946903,22.1377778 3.37168142,19.8711111 Z M5.76932153,5.96888889 C4.19587021,7.55555556 3.40914454,9.48222222 3.40914454,11.7111111 C3.40914454,13.94 4.19587021,15.8666667 5.76932153,17.4533333 C7.34277286,19.04 9.25339233,19.8333333 11.4637168,19.8333333 C13.6740413,19.8333333 15.5846608,19.04 17.1581121,17.4533333 C18.7315634,15.8666667 19.5182891,13.94 19.5182891,11.7111111 C19.5182891,9.48222222 18.7315634,7.55555556 17.1581121,5.96888889 C15.5846608,4.38222222 13.6740413,3.58888889 11.4637168,3.58888889 C9.25339233,3.58888889 7.34277286,4.38222222 5.76932153,5.96888889 Z" id="Shape" fill="#9A2E9B"></path>
                    <polygon id="Shape" fill="#9A2E9B" points="48.8519174 0.377777778 48.8519174 23.0444444 45.4427729 23.0444444 45.4427729 8.65111111 39.1864307 23.0444444 35.3277286 23.0444444 29.2212389 8.72666667 29.2212389 23.0444444 25.8120944 23.0444444 25.8120944 0.377777778 29.3710914 0.377777778 37.2758112 18.8888889 45.2929204 0.377777778"></polygon>
                    <polygon id="Shape" fill="#9A2E9B" points="69.0445428 0.377777778 69.0445428 23.0444444 65.4855457 23.0444444 55.8575221 6.83777778 55.8575221 23.0444444 52.4483776 23.0444444 52.4483776 0.377777778 56.0073746 0.377777778 65.5979351 16.5844444 65.5979351 0.377777778"></polygon>
                    <polygon id="Shape" fill="#9A2E9B" points="76.0501475 23.0444444 72.6410029 23.0444444 72.6410029 0.377777778 76.0501475 0.377777778"></polygon>
                    <polygon id="Shape" fill="#FBA343" points="83.1681416 0.377777778 83.1681416 19.6066667 91.2227139 19.6066667 91.2227139 23.0444444 79.7589971 23.0444444 79.7589971 0.377777778"></polygon>
                    <polygon id="Shape" fill="#FBA343" points="97.4415929 23.0444444 94.0324484 23.0444444 94.0324484 0.377777778 97.4415929 0.377777778"></polygon>
                    <polygon id="Shape" fill="#FBA343" points="112.614159 0.377777778 112.614159 3.81555556 104.559587 3.81555556 104.559587 9.97333333 110.778466 9.97333333 110.778466 13.4111111 104.559587 13.4111111 104.559587 23.0444444 101.150442 23.0444444 101.150442 0.377777778"></polygon>
                    <polygon id="Shape" fill="#FBA343" points="126.850147 0.377777778 126.850147 3.81555556 118.758112 3.81555556 118.758112 9.97333333 124.976991 9.97333333 124.976991 13.4111111 118.758112 13.4111111 118.758112 19.6066667 126.812684 19.6066667 126.812684 23.0444444 115.348968 23.0444444 115.348968 0.377777778"></polygon>
                </g>
                <g id="Group" transform="translate(4.870206, 27.955556)" fill="#9A2E9B">
                    <path d="M2.54749263,3.47555556 L4.27079646,3.47555556 L4.27079646,4.83555556 C3.93362832,5.1 3.37168142,5.36444444 2.73480826,5.36444444 C1.46106195,5.36444444 0.599410029,4.45777778 0.599410029,3.09777778 C0.599410029,1.85111111 1.49852507,0.868888889 2.62241888,0.868888889 C3.40914454,0.868888889 3.85870206,1.17111111 4.23333333,1.47333333 L4.30825959,1.54888889 L4.68289086,1.09555556 L4.6079646,1.02 C4.00855457,0.528888889 3.44660767,0.302222222 2.65988201,0.302222222 C1.01150442,0.302222222 -1.42108547e-14,1.73777778 -1.42108547e-14,3.13555556 C-1.42108547e-14,4.76 1.12389381,5.93111111 2.69734513,5.93111111 C3.44660767,5.93111111 4.23333333,5.62888889 4.79528024,5.13777778 L4.83274336,5.1 L4.83274336,2.94666667 L2.54749263,2.94666667 L2.54749263,3.47555556 Z" id="Shape"></path>
                    <polygon id="Shape" points="6.48112094 3.36222222 9.44070796 3.36222222 9.44070796 2.79555556 6.48112094 2.79555556 6.48112094 0.944444444 9.77787611 0.944444444 9.77787611 0.377777778 5.88171091 0.377777778 5.88171091 5.81777778 9.81533923 5.81777778 9.81533923 5.25111111 6.48112094 5.25111111"></polygon>
                    <polygon id="Shape" points="14.6106195 4.76 11.2014749 0.377777778 10.6769912 0.377777778 10.6769912 5.81777778 11.2389381 5.81777778 11.2389381 1.36 14.760472 5.81777778 15.2100295 5.81777778 15.2100295 0.377777778 14.6106195 0.377777778"></polygon>
                    <polygon id="Shape" points="15.9967552 0.944444444 17.8324484 0.944444444 17.8324484 5.81777778 18.3943953 5.81777778 18.3943953 0.944444444 20.1926254 0.944444444 20.1926254 0.377777778 15.9967552 0.377777778"></polygon>
                    <polygon id="Shape" points="21.6162242 3.36222222 24.5758112 3.36222222 24.5758112 2.79555556 21.6162242 2.79555556 21.6162242 0.944444444 24.9129794 0.944444444 24.9129794 0.377777778 21.0168142 0.377777778 21.0168142 5.81777778 24.9504425 5.81777778 24.9504425 5.25111111 21.6162242 5.25111111"></polygon>
                    <path d="M33.079941,3.13555556 L33.1174041,3.09777778 L33.079941,3.06 C33.0424779,1.51111111 31.9185841,0.302222222 30.3825959,0.302222222 C29.0339233,0.302222222 27.6852507,1.36 27.6852507,3.13555556 C27.6852507,4.72222222 28.8466077,5.93111111 30.3825959,5.93111111 C31.019469,5.93111111 31.5814159,5.74222222 32.0684366,5.36444444 L32.8176991,6.04444444 L33.2297935,5.59111111 L32.480531,4.94888889 C32.8551622,4.45777778 33.079941,3.81555556 33.079941,3.13555556 Z M31.9935103,4.57111111 L31.019469,3.66444444 L30.6073746,4.11777778 L31.5814159,4.98666667 C31.2442478,5.25111111 30.8321534,5.36444444 30.3451327,5.36444444 C29.1463127,5.36444444 28.2471976,4.38222222 28.2471976,3.09777778 C28.2471976,1.81333333 29.1463127,0.868888889 30.3451327,0.868888889 C31.5439528,0.868888889 32.4430678,1.85111111 32.4430678,3.13555556 C32.480531,3.66444444 32.2932153,4.15555556 31.9935103,4.57111111 Z" id="Shape"></path>
                    <path d="M37.800295,3.55111111 C37.800295,4.72222222 37.2383481,5.36444444 36.1893805,5.36444444 C35.140413,5.36444444 34.5410029,4.68444444 34.5410029,3.51333333 L34.5410029,0.377777778 L33.9415929,0.377777778 L33.9415929,3.51333333 C33.9415929,4.94888889 34.8032448,5.85555556 36.1519174,5.85555556 C37.5380531,5.85555556 38.3622419,4.94888889 38.3622419,3.47555556 L38.3622419,0.377777778 L37.7628319,0.377777778 L37.7628319,3.55111111 L37.800295,3.55111111 Z" id="Shape"></path>
                    <polygon id="Shape" points="40.0855457 3.36222222 43.0451327 3.36222222 43.0451327 2.79555556 40.0855457 2.79555556 40.0855457 0.944444444 43.3823009 0.944444444 43.3823009 0.377777778 39.4861357 0.377777778 39.4861357 5.81777778 43.419764 5.81777778 43.419764 5.25111111 40.0855457 5.25111111"></polygon>
                    <path d="M50.5377581,4.57111111 C49.9758112,5.13777778 49.4887906,5.36444444 48.8144543,5.36444444 C47.6530973,5.36444444 46.7165192,4.38222222 46.7165192,3.09777778 C46.7165192,1.81333333 47.6156342,0.868888889 48.8144543,0.868888889 C49.4513274,0.868888889 49.9758112,1.09555556 50.500295,1.62444444 L50.5752212,1.7 L50.9873156,1.28444444 L50.9123894,1.20888889 C50.4253687,0.755555556 49.8259587,0.34 48.8144543,0.34 C47.3159292,0.34 46.1171091,1.58666667 46.1171091,3.17333333 C46.1171091,4.76 47.2784661,5.96888889 48.7769912,5.96888889 C49.8259587,5.96888889 50.4253687,5.47777778 50.9123894,5.02444444 L50.9873156,4.94888889 L50.5377581,4.57111111 Z" id="Shape"></path>
                    <path d="M55.4828909,3.55111111 C55.4828909,4.72222222 54.920944,5.36444444 53.8719764,5.36444444 C52.8230088,5.36444444 52.2235988,4.68444444 52.2235988,3.51333333 L52.2235988,0.377777778 L51.6241888,0.377777778 L51.6241888,3.51333333 C51.6241888,4.94888889 52.4858407,5.85555556 53.8345133,5.85555556 C55.1831858,5.85555556 56.0448378,4.94888889 56.0448378,3.47555556 L56.0448378,0.377777778 L55.4454277,0.377777778 L55.4454277,3.55111111 L55.4828909,3.55111111 Z" id="Shape"></path>
                    <rect id="Rectangle-path" x="57.2061947" y="0.377777778" width="1" height="5.44"></rect>
                    <path d="M60.840118,0.377777778 L59.0044248,0.377777778 L59.0044248,5.81777778 L60.840118,5.81777778 C62.4884956,5.81777778 63.6873156,4.68444444 63.6873156,3.09777778 C63.7247788,1.54888889 62.5259587,0.377777778 60.840118,0.377777778 Z M63.1253687,3.13555556 C63.1253687,4.38222222 62.1887906,5.28888889 60.8775811,5.28888889 L59.6412979,5.28888889 L59.6412979,0.944444444 L60.8775811,0.944444444 C62.1513274,0.944444444 63.1253687,1.85111111 63.1253687,3.13555556 Z" id="Shape"></path>
                    <path d="M67.1713864,0.34 L66.6843658,0.34 L64.1743363,5.81777778 L64.8112094,5.81777778 L65.4855457,4.34444444 L68.4076696,4.34444444 L69.0820059,5.81777778 L69.7188791,5.81777778 L67.2463127,0.415555556 L67.1713864,0.34 Z M65.7103245,3.81555556 L66.9091445,1.13333333 L68.1079646,3.81555556 L65.7103245,3.81555556 Z" id="Shape"></path>
                    <path d="M74.9262537,0.34 L74.439233,0.34 L71.9292035,5.81777778 L72.5660767,5.81777778 L73.240413,4.34444444 L76.1625369,4.34444444 L76.79941,5.74222222 L76.8368732,5.81777778 L77.4737463,5.81777778 L75.0011799,0.415555556 L74.9262537,0.34 Z M73.4651917,3.81555556 L74.6640118,1.13333333 L75.8628319,3.81555556 L73.4651917,3.81555556 Z" id="Shape"></path>
                    <polygon id="Shape" points="80.7705015 0.377777778 80.2085546 0.377777778 80.2085546 5.81777778 83.8050147 5.81777778 83.8050147 5.25111111 80.7705015 5.25111111"></polygon>
                    <path d="M87.1017699,0.34 L86.6147493,0.34 L84.1047198,5.81777778 L84.7415929,5.81777778 L85.4159292,4.34444444 L88.3380531,4.34444444 L88.9749263,5.74222222 L89.0123894,5.81777778 L89.6492625,5.81777778 L87.1766962,0.415555556 L87.1017699,0.34 Z M85.640708,3.81555556 L86.839528,1.13333333 L88.0383481,3.81555556 L85.640708,3.81555556 Z" id="Shape"></path>
                    <path d="M94.7067847,3.47555556 L96.4300885,3.47555556 L96.4300885,4.83555556 C96.0929204,5.1 95.5309735,5.36444444 94.8941003,5.36444444 C93.620354,5.36444444 92.7587021,4.45777778 92.7587021,3.09777778 C92.7587021,1.85111111 93.6578171,0.868888889 94.7817109,0.868888889 C95.6058997,0.868888889 96.0554572,1.17111111 96.3926254,1.47333333 L96.4675516,1.54888889 L96.8421829,1.09555556 L96.7672566,1.02 C96.1678466,0.528888889 95.6058997,0.302222222 94.819174,0.302222222 C93.1707965,0.302222222 92.159292,1.73777778 92.159292,3.13555556 C92.159292,4.76 93.2831858,5.93111111 94.8566372,5.93111111 C95.6058997,5.93111111 96.3926254,5.62888889 96.9545723,5.13777778 L96.9920354,5.1 L96.9920354,2.94666667 L94.7067847,2.94666667 L94.7067847,3.47555556 Z" id="Shape"></path>
                    <polygon id="Shape" points="98.6029499 3.36222222 101.562537 3.36222222 101.562537 2.79555556 98.6029499 2.79555556 98.6029499 0.944444444 101.899705 0.944444444 101.899705 0.377777778 98.0410029 0.377777778 98.0410029 5.81777778 101.937168 5.81777778 101.937168 5.25111111 98.6029499 5.25111111"></polygon>
                    <polygon id="Shape" points="106.769912 4.76 103.360767 0.415555556 103.360767 0.377777778 102.836283 0.377777778 102.836283 5.81777778 103.39823 5.81777778 103.39823 1.36 106.882301 5.78 106.919764 5.81777778 107.331858 5.81777778 107.331858 0.377777778 106.769912 0.377777778"></polygon>
                    <polygon id="Shape" points="108.156047 0.944444444 109.954277 0.944444444 109.954277 5.81777778 110.553687 5.81777778 110.553687 0.944444444 112.351917 0.944444444 112.351917 0.377777778 108.156047 0.377777778"></polygon>
                    <polygon id="Shape" points="113.738053 5.25111111 113.738053 3.36222222 116.735103 3.36222222 116.735103 2.79555556 113.738053 2.79555556 113.738053 0.944444444 117.034808 0.944444444 117.034808 0.377777778 113.176106 0.377777778 113.176106 5.81777778 117.072271 5.81777778 117.072271 5.25111111"></polygon>
                </g>
            </g>
        </g>
    </g>
</svg>