<svg id="Layer_1" data-name="Layer 1" xmlns="http://www.w3.org/2000/svg" width="32" height="32" viewBox="0 0 32 32"><defs><style>.cls-1{fill:#fff;}</style></defs><title>profile_in_english</title><path class="cls-1" d="M16,0A16,16,0,1,0,32,16,16,16,0,0,0,16,0Zm0,17.31a4.48,4.48,0,1,1,4.48-4.48A4.49,4.49,0,0,1,16,17.31Zm0,2a8.73,8.73,0,0,1,8.5,6.74,13.11,13.11,0,0,1-17,0A8.73,8.73,0,0,1,16,19.31Zm4.54-1.88a6.36,6.36,0,0,0,1.94-4.6,6.48,6.48,0,1,0-13,0,6.36,6.36,0,0,0,1.94,4.6,11.65,11.65,0,0,0-6.15,6.25A13.18,13.18,0,1,1,29.19,16a13.1,13.1,0,0,1-2.5,7.68A11.65,11.65,0,0,0,20.54,17.43Z"/></svg>