<?xml version="1.0" encoding="UTF-8"?>
<svg width="74px" height="74px" viewBox="0 0 74 74" version="1.1" xmlns="http://www.w3.org/2000/svg" xmlns:xlink="http://www.w3.org/1999/xlink">
    <!-- Generator: sketchtool 48.2 (47327) - http://www.bohemiancoding.com/sketch -->
    <title>4D51E8F8-3F12-4669-9B00-7AA565F77E6F</title>
    <desc>Created with sketchtool.</desc>
    <defs></defs>
    <g id="5-empresario-herramientas-copy-3" stroke="none" stroke-width="1" fill="none" fill-rule="evenodd" transform="translate(-1358.000000, -477.000000)">
        <g id="Group-12" transform="translate(1358.000000, 477.000000)">
            <circle id="Oval-2" fill="#FBA343" cx="37" cy="37" r="37"></circle>
            <path d="M32.2695179,29.5139167 C32.2695179,30.6145 32.9302036,31.5936667 34.2515751,32.4514167 C35.0693751,32.941 36.6284322,33.6146667 38.9247179,34.4724167 C41.2250322,35.32625 42.9089751,36.03125 43.9765465,36.5835 C45.7410608,37.5 47.0946608,38.5418333 48.0373465,39.7050833 C49.1693751,41.1738333 49.7374036,42.8854167 49.7374036,44.84375 C49.7374036,47.5384167 48.8229179,49.8766667 46.9979751,51.8663333 C45.1730322,53.856 42.7518608,55.0936667 39.7304322,55.58325 L39.7304322,59.8994167 C39.7304322,60.2049167 39.6176322,60.4634167 39.4000893,60.6788333 C39.1785179,60.89425 38.9086036,61 38.5943751,61 L34.8196036,61 C34.5053751,61 34.2354608,60.89425 34.0179179,60.6788333 C33.7963465,60.4634167 33.6875751,60.2049167 33.6875751,59.8994167 L33.6875751,55.4931667 C31.8586036,55.1876667 30.1464608,54.6510833 28.5390608,53.8873333 C26.9356893,53.1196667 25.5337465,52.1875 24.3372608,51.0869167 C24.1479179,50.9028333 24.0391465,50.67175 24.0069179,50.3975833 C23.9746893,50.1234167 24.0552608,49.861 24.2446036,49.6181667 L27.0766893,45.85425 C27.2660322,45.6075 27.5319179,45.4704167 27.8783751,45.4390833 C28.2248322,45.4116667 28.4947465,45.4860833 28.6800608,45.6701667 C30.0054608,46.6493333 31.3268322,47.4444167 32.6482036,48.0554167 C34.1589179,48.6703333 35.6051751,48.9758333 36.9910036,48.9758333 C38.5621465,48.9758333 39.8230893,48.5763333 40.7657751,47.78125 C41.5231465,47.0488333 41.9018322,46.1910833 41.9018322,45.2119167 C41.9018322,44.23275 41.3015751,43.3436667 40.1050893,42.5485833 C39.2872893,42.059 37.7604608,41.3853333 35.5286322,40.5315 C33.2927751,39.67375 31.6088322,38.96875 30.4768036,38.4165 C28.6518608,37.4373333 27.2338036,36.3054167 26.2266608,35.02075 C25.0946322,33.49325 24.5266036,31.6876667 24.5266036,29.604 C24.5266036,27.21875 25.3605179,25.1233333 27.0283465,23.31775 C28.6961751,21.5121667 30.9159179,20.3019167 33.6875751,19.6909167 L33.6875751,15.1005833 C33.6875751,14.7950833 33.7963465,14.5365833 34.0179179,14.3211667 C34.2354608,14.10575 34.5053751,14 34.8196036,14 L38.5943751,14 C38.9086036,14 39.1785179,14.10575 39.4000893,14.3211667 C39.6176322,14.5365833 39.7304322,14.7950833 39.7304322,15.1005833 L39.7304322,19.41675 C41.3015751,19.6008333 42.8606322,19.9964167 44.4035751,20.6113333 C45.9465179,21.2223333 47.2517751,21.9860833 48.3193465,22.9065 C48.5086893,23.0866667 48.6335751,23.3020833 48.6980322,23.5488333 C48.7624893,23.7916667 48.7302608,24.0384167 48.6053751,24.28125 L46.3372893,28.22925 C46.2124036,28.53475 45.9747179,28.7188333 45.6282608,28.7815 C45.2818036,28.84025 44.9836893,28.7815 44.7339179,28.5974167 C42.2160608,26.8819167 39.7908608,26.0241667 37.4623465,26.0241667 C35.8871751,26.0241667 34.6302608,26.3453333 33.6875751,26.9876667 C32.7408608,27.6339167 32.2695179,28.4720833 32.2695179,29.5139167" id="Fill-1" fill="#FFFFFF"></path>
        </g>
    </g>
</svg>