<svg id="Layer_1" data-name="Layer 1" xmlns="http://www.w3.org/2000/svg" width="30" height="30" viewBox="0 0 30 30"><defs><style>.cls-1{fill:#9a2e9b;}.cls-2{fill:#fff;}</style></defs><title>Twitter-2-2</title><g id="Dark_Blue" data-name="Dark Blue"><circle class="cls-1" cx="15" cy="15" r="15"/></g><g id="Logo_FIXED" data-name="Logo FIXED"><path class="cls-2" d="M12.2,22.9A10.24,10.24,0,0,0,22.5,12.8v-.6a6.56,6.56,0,0,0,1.8-1.9,8.3,8.3,0,0,1-2.1.6,3.89,3.89,0,0,0,1.6-2,9.17,9.17,0,0,1-2.3.9,3.53,3.53,0,0,0-5.1-.1,3.63,3.63,0,0,0-1.1,2.6,2,2,0,0,0,.1.8A10.21,10.21,0,0,1,7.9,9.3,3.37,3.37,0,0,0,7.4,11,3.66,3.66,0,0,0,9,14a4.19,4.19,0,0,1-1.6-.4h0a3.54,3.54,0,0,0,2.9,3.5,3.4,3.4,0,0,1-1,.1,1.7,1.7,0,0,1-.7-.1A3.54,3.54,0,0,0,12,19.6a7.38,7.38,0,0,1-4.5,1.5,2.77,2.77,0,0,1-.9-.1,9,9,0,0,0,5.6,1.9"/></g></svg>