<?xml version="1.0" encoding="UTF-8"?>
<svg width="32px" height="32px" viewBox="0 0 32 32" version="1.1" xmlns="http://www.w3.org/2000/svg" xmlns:xlink="http://www.w3.org/1999/xlink">
    <!-- Generator: sketchtool 48.2 (47327) - http://www.bohemiancoding.com/sketch -->
    <title>42A6E66B-D1D1-4723-9984-96024F8F620A</title>
    <desc>Created with sketchtool.</desc>
    <defs></defs>
    <g id="Header-login" stroke="none" stroke-width="1" fill="none" fill-rule="evenodd" transform="translate(-1630.000000, -25.000000)">
        <g id="top" fill="#FFFFFF" fill-rule="nonzero">
            <path d="M1662,41 C1662,32.1778909 1654.82211,25 1646,25 C1637.17789,25 1630,32.1778909 1630,41 C1630,45.6597818 1632.00378,49.8599273 1635.19331,52.7864727 L1635.17818,52.7998545 L1635.69716,53.2373818 C1635.73091,53.2658909 1635.76756,53.2891636 1635.80131,53.3170909 C1636.07709,53.5457455 1636.36276,53.7627636 1636.65367,53.9728 C1636.74793,54.0408727 1636.84218,54.1089455 1636.93818,54.1752727 C1637.24887,54.3893818 1637.56771,54.5924364 1637.89353,54.7850182 C1637.96451,54.8269091 1638.03607,54.8676364 1638.10764,54.9083636 C1638.46429,55.1114182 1638.82851,55.3028364 1639.20145,55.4785455 C1639.2288,55.4913455 1639.25673,55.5029818 1639.28407,55.5157818 C1640.49949,56.0807273 1641.79695,56.4955636 1643.15375,56.7405091 C1643.18924,56.7469091 1643.22473,56.7533091 1643.2608,56.7597091 C1643.68204,56.8324364 1644.10793,56.8906182 1644.53905,56.9296 C1644.59142,56.9342545 1644.64378,56.9371636 1644.69673,56.9418182 C1645.12611,56.9773091 1645.56015,57 1646,57 C1646.43578,57 1646.86575,56.9773091 1647.2928,56.9429818 C1647.34691,56.9383273 1647.40102,56.9354182 1647.45513,56.9307636 C1647.88276,56.8917818 1648.30516,56.8353455 1648.72233,56.7637818 C1648.7584,56.7573818 1648.79505,56.7509818 1648.83113,56.744 C1650.16756,56.5042909 1651.4464,56.0987636 1652.64611,55.5483636 C1652.69033,55.528 1652.73513,55.5088 1652.77935,55.4878545 C1653.13833,55.3191273 1653.48916,55.1370182 1653.83302,54.9432727 C1653.91855,54.8949818 1654.00349,54.8461091 1654.08844,54.7960727 C1654.40145,54.6116364 1654.70924,54.4190545 1655.00829,54.2142545 C1655.11593,54.1409455 1655.22124,54.0635636 1655.32771,53.9867636 C1655.58313,53.8029091 1655.83389,53.6132364 1656.07767,53.4148364 C1656.13178,53.3712 1656.18996,53.3333818 1656.24291,53.2885818 L1656.77527,52.8440727 L1656.75956,52.8306909 C1659.97702,49.9029818 1662,45.6836364 1662,41 Z M1631.16364,41 C1631.16364,32.8190545 1637.81905,26.1636364 1646,26.1636364 C1654.18095,26.1636364 1660.83636,32.8190545 1660.83636,41 C1660.83636,45.4084364 1658.90182,49.3717818 1655.83913,52.0912 C1655.66807,51.9730909 1655.49585,51.8672 1655.31956,51.7787636 L1650.39331,49.3159273 C1649.95113,49.0948364 1649.67651,48.6503273 1649.67651,48.1563636 L1649.67651,46.4359273 C1649.79055,46.2951273 1649.91098,46.1357091 1650.03549,45.9605818 C1650.67316,45.0599273 1651.18458,44.0580364 1651.55753,42.9799273 C1652.29469,42.6296727 1652.77062,41.8954182 1652.77062,41.0663273 L1652.77062,39.0037818 C1652.77062,38.4993455 1652.5856,38.0100364 1652.25455,37.6254545 L1652.25455,34.9101091 C1652.2848,34.6075636 1652.39185,32.904 1651.15898,31.4983273 C1650.08669,30.2741818 1648.35113,29.6545455 1646,29.6545455 C1643.64887,29.6545455 1641.91331,30.2741818 1640.84102,31.4977455 C1639.60815,32.9034182 1639.7152,34.6081455 1639.74545,34.9095273 L1639.74545,37.6248727 C1639.41498,38.0094545 1639.22938,38.4987636 1639.22938,39.0032 L1639.22938,41.0657455 C1639.22938,41.7063273 1639.5168,42.3038545 1640.00902,42.7070545 C1640.48029,44.5531636 1641.45018,45.9506909 1641.80858,46.4242909 L1641.80858,48.1080727 C1641.80858,48.5828364 1641.54967,49.0192 1641.13251,49.2472727 L1636.53207,51.7566545 C1636.38545,51.8363636 1636.24,51.9294545 1636.09455,52.0336 C1633.06967,49.3153455 1631.16364,45.3764364 1631.16364,41 Z" id="Shape"></path>
        </g>
    </g>
</svg>